<?xml version="1.0" encoding="UTF-8" standalone="no"?>
<!-- Created with Inkscape (http://www.inkscape.org/) -->

<svg
   width="65.874359mm"
   height="66.119972mm"
   viewBox="0 0 65.874359 66.119972"
   version="1.1"
   id="svg5"
   xml:space="preserve"
   inkscape:version="1.2.1 (9c6d41e410, 2022-07-14)"
   sodipodi:docname="currencies logo2.svg"
   xmlns:inkscape="http://www.inkscape.org/namespaces/inkscape"
   xmlns:sodipodi="http://sodipodi.sourceforge.net/DTD/sodipodi-0.dtd"
   xmlns:xlink="http://www.w3.org/1999/xlink"
   xmlns="http://www.w3.org/2000/svg"
   xmlns:svg="http://www.w3.org/2000/svg"><sodipodi:namedview
     id="namedview7"
     pagecolor="#ffffff"
     bordercolor="#000000"
     borderopacity="0.25"
     inkscape:showpageshadow="2"
     inkscape:pageopacity="0.0"
     inkscape:pagecheckerboard="0"
     inkscape:deskcolor="#d1d1d1"
     inkscape:document-units="mm"
     showgrid="false"
     inkscape:zoom="2.1543544"
     inkscape:cx="169.6564"
     inkscape:cy="440.5032"
     inkscape:window-width="3440"
     inkscape:window-height="1369"
     inkscape:window-x="1912"
     inkscape:window-y="-8"
     inkscape:window-maximized="1"
     inkscape:current-layer="layer5" /><defs
     id="defs2"><linearGradient
       id="linearGradient15347"
       inkscape:swatch="solid"
       gradientTransform="matrix(0.7,0,0,0.7,76.619851,41.688793)"><stop
         style="stop-color:#fff57a;stop-opacity:1;"
         offset="0"
         id="stop15345" /></linearGradient><linearGradient
       inkscape:collect="always"
       id="linearGradient7401"><stop
         style="stop-color:#fbd630;stop-opacity:1;"
         offset="0.84657532"
         id="stop7397" /><stop
         style="stop-color:#fbd630;stop-opacity:0;"
         offset="1"
         id="stop7399" /></linearGradient><radialGradient
       inkscape:collect="always"
       xlink:href="#linearGradient7401"
       id="radialGradient7405"
       cx="61.116703"
       cy="71.172974"
       fx="61.116703"
       fy="71.172974"
       r="26.235115"
       gradientTransform="matrix(1,0,0,1.014587,42.9,30.746008)"
       gradientUnits="userSpaceOnUse" /></defs><g
     inkscape:groupmode="layer"
     id="layer2"
     inkscape:label="Coin"
     style="display:inline"
     transform="translate(-71.553682,-70.26296)"><ellipse
       style="fill:#ffed21;fill-opacity:1;stroke:#fbd62b;stroke-width:0.4;stroke-dasharray:none;stroke-opacity:1"
       id="path5921"
       cx="104.49086"
       cy="103.32295"
       rx="32.737179"
       ry="32.859993"
       inkscape:export-filename="path5921.svg"
       inkscape:export-xdpi="96"
       inkscape:export-ydpi="96" /><ellipse
       style="fill:#fff57a;fill-opacity:1;stroke:#000000;stroke-width:0;stroke-dasharray:none"
       id="path4194"
       cx="104.12242"
       cy="103.44576"
       rx="29.77939"
       ry="29.656578"
       inkscape:label="path4194" /><ellipse
       style="fill:url(#radialGradient7405);fill-opacity:1;stroke:#000000;stroke-width:0;stroke-dasharray:none"
       id="path2361"
       cx="104.0167"
       cy="102.95718"
       rx="26.077026"
       ry="26.459719"
       inkscape:label="path2361" /></g><g
     inkscape:groupmode="layer"
     id="layer5"
     inkscape:label="Dollar text"
     style="display:inline"
     transform="translate(-71.553682,-70.26296)"><path
       id="rect12040"
       style="fill:#fff57a;fill-opacity:1;stroke:#fbd62b;stroke-width:0.28;stroke-dasharray:none;stroke-opacity:1"
       d="m 100.44534,101.21074 -0.0611,1.94903 c -3.20309,0.34312 -6.268136,1.92846 -6.4396,6.46131 -0.413933,4.88918 2.601145,5.84797 6.010594,7.18731 l -0.1324,4.21241 c -1.061017,0.15994 -2.134527,0.28355 -2.990463,0.39357 -0.746221,-1.22851 -0.803362,-3.09167 -1.094249,-4.55931 l -1.033477,-0.0304 c -0.298884,2.03934 -0.935308,4.33571 -0.72962,6.23088 2.277947,0.78433 4.165478,1.22571 5.740735,1.38292 l -0.05209,1.65313 1.76201,0.0554 0.0521,-1.6535 c 4.19115,-0.19875 5.61241,-2.96878 6.66135,-6.51376 0.85412,-3.66332 -2.97025,-6.03391 -6.2157,-7.67457 l 0.13602,-4.33503 c 0.81215,-0.0351 1.66349,-0.0105 2.55385,-0.0268 0.52127,1.0818 0.73879,2.31555 0.94232,3.55622 l 0.9727,-0.0912 c 0.62343,-1.70582 0.96667,-3.48149 0.94196,-5.34934 -0.79722,-0.36848 -2.95531,-0.93064 -5.32004,-0.97307 l 0.0571,-1.81989 z m -0.15663,4.98688 -0.10237,3.25344 c -1.618968,-0.78962 -2.733595,-1.37922 -2.351273,-1.86619 0.758606,-0.76229 1.577808,-1.16959 2.453643,-1.38725 z m 1.40751,11.34039 c 0.80912,0.37239 1.61235,0.80424 2.37009,1.35362 0.57682,0.8743 -0.70723,1.42824 -2.46956,1.81193 z" /></g><g
     inkscape:groupmode="layer"
     id="layer4"
     inkscape:label="Pound text"
     transform="translate(-70.939298,-148.98628)"
     style="display:inline"><path
       id="rect11974"
       style="fill:#fff57a;fill-opacity:1;stroke:#fbd62b;stroke-width:0.28;stroke-dasharray:none;stroke-opacity:1"
       d="m 118.64224,171.92846 c -6.9168,-0.0397 -7.52133,4.02894 -7.46259,8.3615 h -2.72821 v 2.88773 h 2.80164 c 0.0515,2.94393 -0.17866,5.60709 -2.55819,6.71706 l 0.0912,2.03657 15.28837,0.0304 0.42576,-7.32514 -1.06386,0.0912 -1.36772,3.82969 -8.57131,-0.0304 c 1.70116,-0.50841 2.0668,-2.77149 2.21418,-5.34934 h 5.05018 V 180.29 h -4.9196 c 0.19696,-3.78996 0.78871,-7.14015 5.16268,-5.68358 l 1.15502,3.98162 0.91158,-0.12155 1.00309,-5.89663 c -2.14424,-0.43202 -3.93587,-0.63278 -5.43218,-0.64136 z" /></g><g
     inkscape:groupmode="layer"
     id="layer3"
     inkscape:label="Eur Text"
     style="display:inline;fill:url(#linearGradient15347)"
     transform="translate(-149.4173,-70.140147)"><path
       style="display:inline;opacity:1;fill:url(#linearGradient15347);fill-opacity:1;fill-rule:evenodd;stroke:#fbd62b;stroke-width:0.28;stroke-dasharray:none;stroke-opacity:1;image-rendering:auto"
       d="m 176.55939,80.724828 c -0.10825,-8.4e-4 -0.21577,-5.18e-4 -0.32231,0.0011 -5.51551,0.08302 -8.74421,3.381857 -9.89996,7.344307 h -2.41567 v 3.008911 h 1.93601 c -0.008,0.220931 -0.01,0.441955 -0.006,0.662699 h -1.94108 v 3.008912 h 2.35671 c 1.51204,5.653983 7.08632,9.788723 16.08925,4.776349 l -0.21487,-1.934197 c -5.47631,1.657931 -8.58386,-0.08513 -9.87609,-2.842152 h 6.60384 v -3.008946 h -7.31052 c -0.01,-0.220271 -0.0131,-0.441104 -0.007,-0.662699 h 7.32912 V 88.07022 h -6.77169 c 1.03749,-2.93402 3.45254,-5.1777 6.72285,-4.44717 0.31424,1.097483 0.42593,1.739582 1.16044,3.782663 l 1.03168,-0.215232 c 0.692,-1.558359 0.85948,-3.53637 0.98861,-5.545037 -2.01331,-0.62246 -3.82912,-0.908429 -5.45279,-0.920616 z"
       id="rect10609" /></g></svg>
